# xmcd CD database file
#
# Track frame offsets:
#	150
#	22745
#	42931
#	65547
#
# Disc length: 1141 seconds
#
# Revision: 3
# Processed by: cddbd v1.5.2PL0 Copyright (c) Steve Scherf et al.
# Submitted via: CDex 1.70beta2
#
DISCID=28047304
DTITLE=eufonius - ディヴィニティ
DYEAR=2009
DGENRE=Soundtrack
TTITLE0=ディヴィニティ
TTITLE1=natalis
TTITLE2=ディヴィニティ(instrumental)
TTITLE3=natalis～stillness mix～
EXTD=YEAR: 2009
EXTT0=
EXTT1=
EXTT2=
EXTT3=
PLAYORDER=
